#!OML:ASF I:\Actors\actors\Patient Classification 1\Patient 1\Session 1\Subject1.ASF
:FULLY-SPECIFIED
:DEGREES
1200
root 0.536588 17.5199 9.64751 13.7668 -9.12697 -10.4419
lowerback 1.06235 -0.846233 2.05038
upperback -7.17319 -0.860809 2.84258
thorax -8.09751 -0.460866 1.91444
lowerneck -13.8385 -9.07431 -6.34137
upperneck 29.6534 -14.5741 8.7254
head 13.4597 -6.13317 2.08403
rclavicle 1.26477e-014 -9.54166e-015
rhumerus -3.35753 43.4508 -75.3739
rradius 94.7483
rwrist -16.5461
rhand 20.6749 -62.5654
rfingers 7.12502
rthumb 45.1633 -86.0004
lclavicle 1.26477e-014 -9.54166e-015
lhumerus 5.16505 -22.1622 70.4208
lradius 57.5618
lwrist 29.1409
lhand -48.2739 -25.4158
lfingers 7.12502
lthumb -20.9316 3.4748
rfemur -11.8292 21.3612 25.3104
rtibia 8.09039
rfoot -10.5389 -14.9443
rtoes -4.61871
lfemur 8.0008 -50.6351 -13.9265
ltibia -4.80262
lfoot -50.2918 59.7772
ltoes 28.1481
1201
root 0.548798 17.5174 9.64324 13.6551 -8.56707 -10.8484
lowerback 1.33445 -1.0764 2.43064
upperback -7.11972 -1.12675 3.03989
thorax -8.2011 -0.609403 1.93781
lowerneck -13.3423 -9.38046 -6.69788
upperneck 29.4908 -14.9417 8.74171
head 13.355 -6.3579 2.10229
rclavicle 3.49861e-014 -1.74931e-014
rhumerus -4.33601 43.636 -73.4208
rradius 96.2091
rwrist -16.5963
rhand 19.6049 -63.4809
rfingers 7.12502
rthumb 44.1669 -87.3012
lclavicle 3.49861e-014 -1.74931e-014
lhumerus 5.16607 -21.9877 70.4134
lradius 57.6164
lwrist 28.9163
lhand -48.3354 -25.3505
lfingers 7.12502
lthumb -20.9906 3.53356
rfemur -11.573 21.0544 25.9023
rtibia 8.05532
rfoot -10.6911 -15.1034
rtoes -4.17627
lfemur 7.96368 -50.4422 -13.3276
ltibia -4.9109
lfoot -48.4465 59.8195
ltoes 27.0933
1202
root 0.573289 17.5051 9.63914 13.3429 -7.75876 -11.8599
lowerback 1.90944 -1.34749 3.7222
upperback -7.00278 -1.36654 3.34992
thorax -8.44341 -0.801063 1.58118
lowerneck -12.9028 -9.70851 -7.06269
upperneck 29.381 -15.3333 8.71204
head 13.2856 -6.59558 2.09797
rclavicle 9.49197e-015 -2.22639e-014
rhumerus -5.31591 43.7577 -71.381
rradius 97.4363
rwrist -15.9419
rhand 19.7506 -64.6951
rfingers 7.12502
rthumb 44.3027 -88.4642
lclavicle 9.49197e-015 -2.22639e-014
lhumerus 5.13565 -21.8155 70.4345
lradius 57.646
lwrist 28.8148
lhand -48.3994 -25.1718
lfingers 7.12502
lthumb -21.0521 3.70545
rfemur -10.8865 20.2077 27.3631
rtibia 7.90481
rfoot -10.7595 -14.86
rtoes -4.38475
lfemur 8.46742 -50.0718 -12.4364
ltibia -5.17163
lfoot -46.0331 59.7666
ltoes 25.7186
1203
root 0.564583 17.5165 9.64989 13.4339 -7.68947 -10.6771
lowerback 1.43947 -1.49634 2.08931
upperback -7.01113 -1.70142 3.18411
thorax -8.12089 -0.864654 2.32865
lowerneck -12.4941 -10.0163 -7.4466
upperneck 29.2916 -15.7307 8.78647
head 13.2475 -6.82278 2.13436
rclavicle 4.4975e-015 1.66979e-014
rhumerus -4.81459 44.9602 -68.085
rradius 98.3495
rwrist -16.5812
rhand 19.8472 -66.6645
rfingers 7.12502
rthumb 44.3927 90.3994
lclavicle 4.4975e-015 1.66979e-014
lhumerus 5.18231 -21.6949 70.4416
lradius 57.6157
lwrist 28.8799
lhand -48.4125 -25.3188
lfingers 7.12502
lthumb -21.0648 3.55705
rfemur -11.2682 20.4671 25.8235
rtibia 7.96109
rfoot -10.8804 -15.466
rtoes -4.24545
lfemur 8.13174 -51.1639 -13.6418
ltibia -4.90735
lfoot -47.5434 60.0296
ltoes 26.406
1204
root 0.563924 17.5223 9.64664 13.5046 -7.28948 -10.3129
lowerback 1.35698 -1.65495 1.50987
upperback -7.03221 -1.94997 3.19766
thorax -8.06762 -0.949241 2.68472
lowerneck -12.1606 -10.3247 -7.72831
upperneck 29.2498 -16.1153 8.73232
head 13.2221 -7.04393 2.10445
rclavicle -2.1419e-014 5.64548e-014
rhumerus -5.56872 45.2556 -65.7531
rradius 99.111
rwrist -17.4907
rhand 21.5429 -69.6376
rfingers 7.12502
rthumb 45.9696 92.7448
lclavicle -2.1419e-014 5.64548e-014
lhumerus 5.24601 -21.6802 70.5269
lradius 57.5875
lwrist 28.8802
lhand -48.4697 -25.4247
lfingers 7.12502
lthumb -21.1196 3.4451
rfemur -11.5148 20.5248 25.3317
rtibia 8.07413
rfoot -11.0288 -15.9851
rtoes -3.88416
lfemur 7.59155 -51.4818 -13.5676
ltibia -4.84147
lfoot -47.0868 60.0258
ltoes 26.1664
1205
root 0.578227 17.5155 9.6352 13.5836 -6.69497 -10.7551
lowerback 1.53334 -1.80111 2.06171
upperback -7.0592 -2.09463 3.38811
thorax -8.21207 -1.04866 2.59898
lowerneck -11.9654 -10.6279 -7.98846
upperneck 29.2532 -16.4619 8.57533
head 13.2282 -7.25032 2.03153
rclavicle -5.71506e-015 -4.77083e-015
rhumerus -7.37884 44.8753 -64.1575
rradius 99.6789
rwrist -16.9543
rhand 25.4916 -72.863
rfingers 7.12502
rthumb 49.6121 94.287
lclavicle -5.71506e-015 -4.77083e-015
lhumerus 5.25781 -21.662 70.6829
lradius 57.5667
lwrist 28.7517
lhand -48.5294 -25.2945
lfingers 7.12502
lthumb -21.1771 3.5688
rfemur -11.6431 20.2327 25.8468
rtibia 8.24423
rfoot -11.1668 -16.1245
rtoes -3.71257
lfemur 7.05521 -51.232 -12.5201
ltibia -4.93536
lfoot -45.3816 59.8986
ltoes 25.3367
1206
root 0.608117 17.4946 9.61931 13.8036 -6.10637 -11.5166
lowerback 1.66794 -1.92706 3.24453
upperback -7.11967 -2.16922 3.61153
thorax -8.40036 -1.15517 2.19274
lowerneck -11.6693 -10.8683 -8.37266
upperneck 29.1631 -16.7447 8.61188
head 13.2024 -7.42556 2.06843
rclavicle -2.06239e-014 3.57812e-014
rhumerus -7.74365 46.0253 -61.4203
rradius 100.071
rwrist -16.9642
rhand 22.6614 -71.9626
rfingers 7.12502
rthumb 47.0058 94.6263
lclavicle -2.06239e-014 3.57812e-014
lhumerus 5.23922 -21.6143 70.7828
lradius 57.5735
lwrist 28.6235
lhand -48.6133 -24.9599
lfingers 7.12502
lthumb -21.2576 3.89434
rfemur -11.9532 19.5178 26.6671
rtibia 8.46497
rfoot -11.2398 -15.7653
rtoes -3.68837
lfemur 6.31727 -50.838 -11.0464
ltibia -4.96647
lfoot -43.6492 59.6966
ltoes 24.5282
1207
root 0.615402 17.5032 9.62237 13.2076 -5.36396 -11.7428
lowerback 2.30905 -2.17994 3.58599
upperback -6.95241 -2.44706 3.73831
thorax -8.60526 -1.30741 2.18722
lowerneck -11.2425 -11.065 -8.72905
upperneck 28.9872 -16.9798 8.68432
head 13.1106 -7.58121 2.13149
rclavicle 1.49089e-015 5.00937e-014
rhumerus -8.16065 47.7083 -58.7926
rradius 100.79
rwrist -16.8718
rhand 23.2777 -73.7663
rfingers 7.12502
rthumb 47.5754 96.1748
lclavicle 1.49089e-015 5.00937e-014
lhumerus 5.17838 -21.6329 70.8127
lradius 57.6368
lwrist 28.556
lhand -48.7915 -24.6418
lfingers 7.12502
lthumb -21.4288 4.19306
rfemur -10.9902 19.4396 27.2585
rtibia 8.12554
rfoot -11.365 -16.3825
rtoes -3.07813
lfemur 6.931 -50.5683 -11.1139
ltibia -5.10107
lfoot -41.4011 59.4113
ltoes 23.3122
1208
root 0.618816 17.5099 9.62209 12.9944 -4.95911 -11.7079
lowerback 2.54581 -2.30992 3.56355
upperback -6.86992 -2.60933 3.7801
thorax -8.65062 -1.38288 2.26853
lowerneck -11.0115 -11.2696 -8.9073
upperneck 28.8463 -17.221 8.63701
head 13.044 -7.72488 2.11
rclavicle 1.97791e-014 -2.42517e-014
rhumerus -8.19696 48.6644 -56.1247
rradius 101.086
rwrist -14.7531
rhand 24.8382 -74.0069
rfingers 7.12502
rthumb 49.0126 95.7331
lclavicle 1.97791e-014 -2.42517e-014
lhumerus 5.19563 -21.7086 70.7817
lradius 57.681
lwrist 28.5306
lhand -48.8349 -24.4333
lfingers 7.12502
lthumb -21.4704 4.39691
rfemur -10.7059 19.4981 27.3182
rtibia 8.06369
rfoot -11.4887 -16.8394
rtoes -2.82169
lfemur 6.92738 -50.3566 -11.05
ltibia -5.17843
lfoot -39.9571 59.2029
ltoes 22.487
